<?xml version="1.0" encoding="utf-8"?>
<!-- Generator: Adobe Illustrator 27.9.0, SVG Export Plug-In . SVG Version: 6.00 Build 0)  -->
<svg version="1.1" id="Layer_1" xmlns="http://www.w3.org/2000/svg" xmlns:xlink="http://www.w3.org/1999/xlink" x="0px" y="0px"
	 viewBox="0 0 800 800" style="enable-background:new 0 0 800 800;" xml:space="preserve">
<style type="text/css">
	.st0{fill-rule:evenodd;clip-rule:evenodd;fill:#FFFFFF;}
</style>
<path class="st0" d="M682.2,116.3C607.3,41.3,507.7,0,401.7,0C183.1,0,5.2,177.8,5.1,396.4c0,69.9,18.2,138.1,52.9,198.2L1.8,800
	L212,744.9c57.9,31.6,123.1,48.2,189.5,48.3h0.2c218.5,0,396.5-177.8,396.5-396.4C798.3,290.8,757,191.2,682.2,116.3 M401.7,726.2
	h-0.1c-59.1,0-117.1-15.9-167.8-45.9l-12-7.1L97,705.8l33.3-121.6l-7.8-12.5c-33-52.5-50.4-113.1-50.4-175.3
	C72.1,214.8,220,67,401.8,67c88,0,170.8,34.4,233,96.6s96.5,145.1,96.4,233.1C731.2,578.4,583.3,726.2,401.7,726.2 M582.5,479.4
	c-9.9-5-58.6-28.9-67.7-32.2c-9.1-3.3-15.7-5-22.3,5c-6.6,9.9-25.6,32.2-31.4,38.8c-5.8,6.6-11.6,7.4-21.5,2.5
	c-9.9-5-41.8-15.4-79.7-49.2c-29.5-26.3-49.3-58.7-55.1-68.6c-5.8-9.9-0.6-15.3,4.3-20.2c4.5-4.4,9.9-11.6,14.9-17.4
	c5-5.8,6.6-9.9,9.9-16.5c3.3-6.6,1.7-12.4-0.8-17.4c-2.5-5-22.3-53.7-30.5-73.5c-8-19.3-16.2-16.7-22.3-17c-5.8-0.3-12.4-0.3-19-0.3
	c-6.6,0-17.3,2.5-26.4,12.4c-9.1,9.9-34.7,33.9-34.7,82.6s35.5,95.9,40.5,102.5c5,6.6,69.9,106.7,169.3,149.6
	c23.6,10.2,42.1,16.3,56.5,20.9c23.7,7.5,45.3,6.5,62.4,3.9c19-2.8,58.6-24,66.9-47.1c8.3-23.1,8.3-43,5.8-47.1
	C599,486.8,592.4,484.4,582.5,479.4"/>
</svg>
